<svg xmlns="http://www.w3.org/2000/svg" xmlns:xlink="http://www.w3.org/1999/xlink" width="24.007" height="22.427" viewBox="0 0 24.007 22.427">
  <defs>
    <clipPath id="clip-path">
      <rect id="Rectangle_1" data-name="Rectangle 1" width="24.007" height="22.427"/>
    </clipPath>
  </defs>
  <g id="Groupe_2" data-name="Groupe 2" transform="translate(0 0)">
    <g id="Groupe_1" data-name="Groupe 1" transform="translate(0 0)" clip-path="url(#clip-path)">
      <path id="Tracé_1" data-name="Tracé 1" d="M15.654,26.541a7.714,7.714,0,1,1,.232-2.484l.49-.008a8.2,8.2,0,1,0-.186,2.355,1.247,1.247,0,0,1-.536.138" transform="translate(0 -10.355)"/>
      <path id="Tracé_2" data-name="Tracé 2" d="M17.378,30.211a5.333,5.333,0,1,1,.13-2.575l.056.018c.156.058.314.117.473.172a5.823,5.823,0,1,0-.182,2.5,3.427,3.427,0,0,1-.476-.113" transform="translate(-4.077 -14.433)"/>
      <path id="Tracé_3" data-name="Tracé 3" d="M28.9,0a8.212,8.212,0,0,0-7.932,6.129.664.664,0,0,1,.113.008l.376.061a7.711,7.711,0,1,1-.247,2.491c-.164,0-.328-.006-.491-.006A8.2,8.2,0,1,0,28.9,0" transform="translate(-13.095 0)"/>
      <path id="Tracé_4" data-name="Tracé 4" d="M33.048,6.452a5.832,5.832,0,0,0-5.577,4.154q.239.052.476.115a5.335,5.335,0,1,1-.179,2.293,1.383,1.383,0,0,1-.441.047l-.047,0a5.822,5.822,0,1,0,5.768-6.605" transform="translate(-17.238 -4.077)"/>
    </g>
  </g>
</svg>
