<svg id="Groupe_10" data-name="Groupe 10" xmlns="http://www.w3.org/2000/svg" xmlns:xlink="http://www.w3.org/1999/xlink" width="22.248" height="17.982" viewBox="0 0 22.248 17.982">
  <defs>
    <clipPath id="clip-path">
      <rect id="Rectangle_5" data-name="Rectangle 5" width="22.248" height="17.982" transform="translate(0 0)" fill="none"/>
    </clipPath>
  </defs>
  <g id="Groupe_9" data-name="Groupe 9" transform="translate(0 0)" clip-path="url(#clip-path)">
    <path id="Tracé_12" data-name="Tracé 12" d="M21.834,6.023a.868.868,0,0,0,.413-.621.885.885,0,0,0-.337-.664.365.365,0,0,1-.1-.477,1.752,1.752,0,0,0-.19-1.838A3.713,3.713,0,0,0,20.4,1.36,9.226,9.226,0,0,0,17.588.337,16.363,16.363,0,0,0,14.246,0c-.506,0-1.016.022-1.525.065A12.278,12.278,0,0,0,8.956.919,5.3,5.3,0,0,0,7.018,2.189a1.754,1.754,0,0,0-.37,2.049.386.386,0,0,1-.1.51,1.079,1.079,0,0,0-.251.309.7.7,0,0,0,.251.919L6.58,6a.609.609,0,0,1,.248.3.5.5,0,0,1-.108.352,1.056,1.056,0,0,1-.546.434c-.23.043-.459.083-.689.122-.61.108-1.238.219-1.841.38A5.7,5.7,0,0,0,.837,9.145a1.744,1.744,0,0,0-.391,2.085.382.382,0,0,1-.09.485A.927.927,0,0,0,0,12.4a.882.882,0,0,0,.427.614.358.358,0,0,1,.108.538,1.784,1.784,0,0,0,.312,2.268,6.308,6.308,0,0,0,2.789,1.547,15.52,15.52,0,0,0,4.379.614l.416-.022c.3-.011.607-.025.908-.047a12.4,12.4,0,0,0,4-.883,5.349,5.349,0,0,0,1.9-1.253,1.8,1.8,0,0,0,.309-2.157c-.187-.355-.176-.4.136-.653a.815.815,0,0,0,.352-.578.836.836,0,0,0-.287-.617.41.41,0,0,0-.039-.039.494.494,0,0,1-.108-.118.4.4,0,0,1-.054-.237.578.578,0,0,1,.528-.5c.219-.043.441-.079.66-.118.621-.108,1.26-.219,1.874-.384a5.675,5.675,0,0,0,2.807-1.547,1.778,1.778,0,0,0,.3-2.25.368.368,0,0,1,.118-.556M7.423,2.545A3.721,3.721,0,0,1,8.2,1.9,7.609,7.609,0,0,1,10.657.937,15.974,15.974,0,0,1,15.33.589a11.519,11.519,0,0,1,4.128.9,6.318,6.318,0,0,1,1.4.887,1.443,1.443,0,0,1,.581,1.113,1.578,1.578,0,0,1-.628,1.184A6.243,6.243,0,0,1,18.6,5.8a12.73,12.73,0,0,1-3.783.617c-.126,0-.251,0-.373-.007a14.276,14.276,0,0,1-4.849-.7,5.862,5.862,0,0,1-1.978-1.07,1.537,1.537,0,0,1-.6-1.037,1.47,1.47,0,0,1,.406-1.062M1.447,9.278a6.394,6.394,0,0,1,2.9-1.328,15.86,15.86,0,0,1,7.86.136,5.848,5.848,0,0,1,2.433,1.238,1.541,1.541,0,0,1,.589,1.177,1.581,1.581,0,0,1-.65,1.174,7.11,7.11,0,0,1-2.807,1.289,12.338,12.338,0,0,1-3.123.438c-.129,0-.255,0-.384-.011A14.127,14.127,0,0,1,3.393,12.7a6.082,6.082,0,0,1-1.92-1.019,1.588,1.588,0,0,1-.66-1.192,1.594,1.594,0,0,1,.635-1.213m13.535,5.937a4.319,4.319,0,0,1-.965.872,8.6,8.6,0,0,1-3.27,1.116A17.454,17.454,0,0,1,8,17.426a15.877,15.877,0,0,1-3.356-.352,7.664,7.664,0,0,1-2.645-1,4.933,4.933,0,0,1-.9-.8,1.1,1.1,0,0,1-.251-1.059,1.007,1.007,0,0,1,.072-.183Q.938,13.98.97,13.9l.075-.179.158.305c.029.061.054.108.075.151a.972.972,0,0,0,1.105.617c.093-.007.19-.018.284-.032a.819.819,0,0,1,.8.337,1.086,1.086,0,0,0,1.568.391.8.8,0,0,1,.94.162,1.08,1.08,0,0,0,1.518.129.872.872,0,0,1,1.059,0,1.076,1.076,0,0,0,1.5-.118.824.824,0,0,1,.983-.165,1.071,1.071,0,0,0,1.529-.384.834.834,0,0,1,.84-.352l.183.022.029,0a.979.979,0,0,0,1.156-.639c.022-.043.043-.086.072-.136l.108-.208.086.115a1.018,1.018,0,0,1-.054,1.289m.348-2.656a1.176,1.176,0,0,1-.187.144,1.76,1.76,0,0,0-.822,1.1c-.086.337-.276.488-.571.456l-.1-.011c-.079-.011-.158-.018-.233-.029a1.283,1.283,0,0,0-1.253.531c-.33.416-.47.449-.955.237a1.238,1.238,0,0,0-1.468.237.753.753,0,0,1-.492.251A.853.853,0,0,1,8.8,15.3a1.308,1.308,0,0,0-1.576.007.622.622,0,0,1-.915-.075,1.248,1.248,0,0,0-1.49-.24c-.467.212-.625.172-.933-.233a1.348,1.348,0,0,0-1.371-.531c-.564.079-.678.007-.829-.528a2.05,2.05,0,0,0-.9-1.084A.352.352,0,0,1,.6,12.289a.29.29,0,0,1,.215-.23.4.4,0,0,1,.33.05,9.337,9.337,0,0,0,4.731,1.7,15.587,15.587,0,0,0,5.606-.223,8.357,8.357,0,0,0,3.37-1.436.463.463,0,0,1,.388-.072.268.268,0,0,1,.19.19.312.312,0,0,1-.1.284m6.08-4.8A2.012,2.012,0,0,1,20.527,8.9,7.04,7.04,0,0,1,17.922,10c-.373.09-.761.154-1.134.219q-.28.043-.56.1a.854.854,0,0,1-.129.011.408.408,0,0,1-.406-.337,3.682,3.682,0,0,0-.219-.5c-.036-.068-.065-.129-.093-.19l-.032-.072.065-.043c.108-.065.208-.133.312-.2.255-.165.5-.319.75-.456a.931.931,0,0,1,.409-.072c.05,0,.1,0,.151-.011a.217.217,0,0,1,.115.029c.854.334,1.1.273,1.669-.406a.744.744,0,0,1,.689-.3.175.175,0,0,0,.043,0,.349.349,0,0,1,.086.007,1.094,1.094,0,0,0,1.4-.743.163.163,0,0,1,.065-.075c.011-.011.025-.022.043-.036l.079-.072.057.093a1.048,1.048,0,0,1,.126.808m.126-2.2a.334.334,0,0,1-.151.133,1.817,1.817,0,0,0-.858,1.12c-.1.359-.24.467-.553.463l-.122-.011c-.09-.011-.179-.018-.273-.029a1.246,1.246,0,0,0-1.192.51c-.366.445-.481.474-1.009.244a1.226,1.226,0,0,0-1.375.2c-.237.2-.38.291-.538.291a1.2,1.2,0,0,1-.531-.2,1.344,1.344,0,0,0-1-.212.716.716,0,0,1-.427-.061A13.185,13.185,0,0,0,8.349,6.992H8.335a.417.417,0,0,1-.459-.316,1.557,1.557,0,0,0-.732-.933,1.443,1.443,0,0,1-.169-.122.374.374,0,0,1-.169-.233.242.242,0,0,1,.068-.19.328.328,0,0,1,.481-.075l.169.122c.151.108.3.223.463.319a8.506,8.506,0,0,0,2.839,1.059A16.065,16.065,0,0,0,17.714,6.6a7.992,7.992,0,0,0,3.342-1.432c.065-.054.126-.1.2-.09a.665.665,0,0,1,.327.133c.029.025.09.079-.043.345" transform="translate(0 0)"/>
  </g>
</svg>
