<svg xmlns="http://www.w3.org/2000/svg" xmlns:xlink="http://www.w3.org/1999/xlink" width="21.226" height="20.404" viewBox="0 0 21.226 20.404">
  <defs>
    <clipPath id="clip-path">
      <rect id="Rectangle_4" data-name="Rectangle 4" width="21.226" height="20.404"/>
    </clipPath>
  </defs>
  <g id="Groupe_8" data-name="Groupe 8" transform="translate(0 0)">
    <g id="Groupe_7" data-name="Groupe 7" transform="translate(0 0)" clip-path="url(#clip-path)">
      <path id="Tracé_11" data-name="Tracé 11" d="M19.372,16.8V12.477h.784l.017-1.36a1.958,1.958,0,0,0-1.955-1.955,1.927,1.927,0,0,0-.6.1V6.24h.621l.014-1.118a1.6,1.6,0,0,0-1.606-1.581,1.613,1.613,0,0,0-1.206.54,1.617,1.617,0,0,0-2.412,0,1.607,1.607,0,0,0-1.078-.526,3.573,3.573,0,0,0,1-1.522A1.522,1.522,0,0,0,10.558.34,1.522,1.522,0,0,0,8.164,2.031,3.59,3.59,0,0,0,9.179,3.566a1.6,1.6,0,0,0-.978.515,1.617,1.617,0,0,0-2.412,0,1.614,1.614,0,0,0-1.206-.54A1.6,1.6,0,0,0,2.977,5.123V6.213h.635V9.263a1.927,1.927,0,0,0-.6-.1,1.957,1.957,0,0,0-1.955,1.955v1.325l.8,0V16.8A2.148,2.148,0,0,0,0,18.921v1.444l21.167.04h.041l.018-1.484A2.148,2.148,0,0,0,19.372,16.8M10.558,3.942A4.276,4.276,0,0,1,8.682,1.873l-.006-.016A.981.981,0,0,1,10.35.893l.207.247.208-.247a.98.98,0,0,1,1.672.965l0,.016a4.274,4.274,0,0,1-1.875,2.068m-.189.739.244.506.244-.506a1.073,1.073,0,0,1,1.924,0l.244.506.244-.506a1.073,1.073,0,0,1,1.924,0l.244.506.244-.506a1.071,1.071,0,0,1,.962-.6A1.052,1.052,0,0,1,17.707,5.12L17.7,5.7,3.519,5.672V5.123A1.053,1.053,0,0,1,4.583,4.084a1.07,1.07,0,0,1,.962.6l.244.506.244-.506a1.073,1.073,0,0,1,1.924,0l.244.506.244-.506a1.073,1.073,0,0,1,1.924,0m6.7,1.57V9.542a1.965,1.965,0,0,0-.375.352,1.949,1.949,0,0,0-3.042,0,1.949,1.949,0,0,0-3.042,0,1.95,1.95,0,0,0-3.043,0,1.949,1.949,0,0,0-3.042,0,1.956,1.956,0,0,0-.375-.352V6.251Zm-12.3,4.264a1.411,1.411,0,0,1,2.552,0l.245.517.245-.517a1.41,1.41,0,0,1,2.552,0l.245.517.245-.517a1.41,1.41,0,0,1,2.552,0l.245.517.245-.517a1.41,1.41,0,0,1,2.552,0l.245.517.245-.517a1.412,1.412,0,0,1,2.689.6l-.01.821L1.594,11.9v-.784a1.412,1.412,0,0,1,2.689-.6l.245.517ZM18.83,16.79a2.16,2.16,0,0,0-1.444.816,2.14,2.14,0,0,0-3.387,0,2.14,2.14,0,0,0-3.387,0,2.14,2.14,0,0,0-3.387,0,2.14,2.14,0,0,0-3.387,0A2.16,2.16,0,0,0,2.4,16.79v-4.3H18.83ZM3.594,18.236l.245.517.245-.517a1.6,1.6,0,0,1,2.9,0l.245.517.245-.517a1.6,1.6,0,0,1,2.9,0l.245.517.245-.517a1.6,1.6,0,0,1,2.9,0l.245.517.245-.517a1.6,1.6,0,0,1,2.9,0l.245.517.245-.517a1.6,1.6,0,0,1,3.052.681l-.012.944L.542,19.824v-.9a1.6,1.6,0,0,1,3.052-.685" transform="translate(0 0)"/>
    </g>
  </g>
</svg>
