<svg xmlns="http://www.w3.org/2000/svg" xmlns:xlink="http://www.w3.org/1999/xlink" width="18.516" height="16.429" viewBox="0 0 18.516 16.429">
  <defs>
    <clipPath id="clip-path">
      <rect id="Rectangle_2" data-name="Rectangle 2" width="18.516" height="16.429"/>
    </clipPath>
  </defs>
  <g id="Groupe_4" data-name="Groupe 4" transform="translate(0 0)">
    <g id="Groupe_3" data-name="Groupe 3" transform="translate(0 0)" clip-path="url(#clip-path)">
      <path id="Tracé_6" data-name="Tracé 6" d="M17,4.1H10.537V1.927h.823V0h-4.2V1.927h.823V4.1h-2.4V2.748H2.115V4.1h-.6A1.519,1.519,0,0,0,0,5.621v9.291a1.519,1.519,0,0,0,1.517,1.517H17a1.519,1.519,0,0,0,1.517-1.517V5.621A1.519,1.519,0,0,0,17,4.1M2.7,3.336H4.987v.75H2.7ZM7.744.589h3.028v.75H7.744Zm.823,1.346H9.949V4.086H8.567ZM.589,12.573H4.445v-.588H.589V5.621a.93.93,0,0,1,.929-.929H17a.93.93,0,0,1,.928.929v6.364h-3.94v.588h3.94v2.338A.93.93,0,0,1,17,15.84H1.517a.93.93,0,0,1-.929-.929Z" transform="translate(0 0)"/>
      <path id="Tracé_7" data-name="Tracé 7" d="M18.473,25.293a4.035,4.035,0,1,0-4.035-4.034,4.039,4.039,0,0,0,4.035,4.034m-3.446-4.034A3.446,3.446,0,1,1,18.473,24.7a3.45,3.45,0,0,1-3.446-3.446" transform="translate(-9.214 -10.992)"/>
      <path id="Tracé_8" data-name="Tracé 8" d="M41.967,15H39.618v2.349h2.349Zm-1.76.589h1.172v1.172H40.206Z" transform="translate(-25.284 -9.575)"/>
    </g>
  </g>
</svg>
